name C:\Users\Nicos\Documents\OpenSimProjects\SprintingProject\Study1\PredictiveResults\IC_pred_Sprinting_optimum_28-October-2023__13-58-45___IKTD_Minus_6_p02_maxVel_01.mot
datacolumns 38
datarows 7
range 0.21338119 0.21904621
endheader
                time	/jointset/ground_pelvis/pelvis_tilt/value	/jointset/ground_pelvis/pelvis_list/value	/jointset/ground_pelvis/pelvis_rotation/value	/jointset/ground_pelvis/pelvis_tx/value	/jointset/ground_pelvis/pelvis_ty/value	/jointset/ground_pelvis/pelvis_tz/value	/jointset/hip_r/hip_flexion_r/value	/jointset/hip_r/hip_adduction_r/value	/jointset/hip_r/hip_rotation_r/value	/jointset/knee_r/knee_angle_r/value	/jointset/ankle_r/ankle_angle_r/value	/jointset/subtalar_r/subtalar_angle_r/value	/jointset/mtp_r/mtp_angle_r/value	/jointset/hip_l/hip_flexion_l/value	/jointset/hip_l/hip_adduction_l/value	/jointset/hip_l/hip_rotation_l/value	/jointset/knee_l/knee_angle_l/value	/jointset/ankle_l/ankle_angle_l/value	/jointset/subtalar_l/subtalar_angle_l/value	/jointset/mtp_l/mtp_angle_l/value	/jointset/back/lumbar_extension/value	/jointset/back/lumbar_bending/value	/jointset/back/lumbar_rotation/value	/jointset/acromial_r/arm_flex_r/value	/jointset/acromial_r/arm_add_r/value	/jointset/acromial_r/arm_rot_r/value	/jointset/elbow_r/elbow_flex_r/value	/jointset/radioulnar_r/pro_sup_r/value	/jointset/radius_hand_r/wrist_flex_r/value	/jointset/radius_hand_r/wrist_dev_r/value	/jointset/acromial_l/arm_flex_l/value	/jointset/acromial_l/arm_add_l/value	/jointset/acromial_l/arm_rot_l/value	/jointset/elbow_l/elbow_flex_l/value	/jointset/radioulnar_l/pro_sup_l/value	/jointset/radius_hand_l/wrist_flex_l/value	/jointset/radius_hand_l/wrist_dev_l/value	
          0.21338119	         -2.95808539	          6.65829131	         -7.28039440	          1.85801563	          1.00004651	          0.31250379	          4.03200455	        -13.31518057	          8.45394856	        -89.11105720	        -22.88037339	        -14.87818434	        -10.47010649	         59.28180599	         -2.95810947	         -1.69503510	        -37.12954478	        -24.25116747	        -29.36632800	         10.21664080	        -21.83261234	        -11.13733926	          9.59517429	         52.23204143	        -20.84117070	        -11.92080235	         95.79708279	         48.32898727	          0.23779175	          6.11908281	        -57.84788566	        -13.73047856	         -9.85776238	         71.60564061	         58.16202235	        -22.04439849	          6.11030690	
          0.21486554	         -3.00310251	          6.62941922	         -6.88634211	          1.87550567	          1.00062701	          0.31242771	          4.55226403	        -13.16924248	          8.25497201	        -90.00505044	        -22.50873172	        -14.98364409	        -10.46932043	         58.62495372	         -2.53833400	         -1.26240344	        -36.34820211	        -24.33577629	        -29.62052963	          9.36938545	        -21.89905306	        -11.15683853	          9.48890394	         50.28633154	        -21.45963738	        -12.51158803	         95.80854957	         47.71643054	          0.38232194	          6.07343210	        -57.19349150	        -14.39201675	        -10.53191191	         72.53946856	         58.64286492	        -22.30030384	          6.06456052	
          0.21486554	         -3.00310251	          6.62941922	         -6.88634211	          1.87550567	          1.00062701	          0.31242771	          4.55226403	        -13.16924248	          8.25497201	        -90.00505044	        -22.50873172	        -14.98364409	        -10.46932043	         58.62495372	         -2.53833400	         -1.26240344	        -36.34820211	        -24.33577629	        -29.62052963	          9.36938545	        -21.89905306	        -11.15683853	          9.48890394	         50.28633154	        -21.45963738	        -12.51158803	         95.80854957	         47.71643054	          0.38232194	          6.07343210	        -57.19349150	        -14.39201675	        -10.53191191	         72.53946856	         58.64286492	        -22.30030384	          6.06456052	
          0.21551375	         -3.02438854	          6.61547920	         -6.71469934	          1.88314628	          1.00087086	          0.31239296	          4.78660564	        -13.10563174	          8.16876685	        -90.39568017	        -22.34517062	        -15.02989685	        -10.46947179	         58.33717606	         -2.35908019	         -1.07333151	        -36.01484660	        -24.37228724	        -29.73224108	          8.98106911	        -21.92468982	        -11.16248740	          9.44234116	         49.43383880	        -21.72472316	        -12.74503506	         95.78000671	         47.45471737	          0.44289081	          6.05344790	        -56.90052298	        -14.68092791	        -10.81958310	         72.96397729	         58.85676674	        -22.41079977	          6.04458026	
          0.21756186	         -3.09886506	          6.56624184	         -6.17572408	          1.90729595	          1.00160015	          0.31227811	          5.55740821	        -12.90529955	          7.90115334	        -91.63126032	        -21.82298612	        -15.17620758	        -10.47159525	         57.42478361	         -1.81097567	         -0.47967153	        -34.99127511	        -24.48914691	        -30.08800901	          7.69308199	        -21.99108963	        -11.16913004	          9.29475534	         46.73711131	        -22.54170477	        -13.37025721	         95.55984642	         46.65444740	          0.62504023	          5.99029711	        -55.94194776	        -15.59375924	        -11.69155322	         74.36426176	         59.54819705	        -22.75336852	          5.98143052	
          0.21904621	         -3.16063855	          6.52584796	         -5.78901259	          1.92480587	          1.00208825	          0.31219072	          6.14625676	        -12.76094170	          7.71273984	        -92.52785715	        -21.43868168	        -15.28263597	        -10.47308615	         56.76110000	         -1.43216682	         -0.05671834	        -34.27554282	        -24.57818151	        -30.34858352	          6.71867625	        -22.02416403	        -11.16353345	          9.18757486	         44.78451943	        -23.10594689	        -13.72795680	         95.28496869	         46.10505572	          0.74816596	          5.94453828	        -55.20773625	        -16.25532938	        -12.27928041	         75.41281467	         60.06449365	        -22.99394932	          5.93568472	
          0.21904621	         -3.16063855	          6.52584796	         -5.78901259	          1.92480587	          1.00208825	          0.31219072	          6.14625676	        -12.76094170	          7.71273984	        -92.52785715	        -21.43868168	        -15.28263597	        -10.47308615	         56.76110000	         -1.43216682	         -0.05671834	        -34.27554282	        -24.57818151	        -30.34858352	          6.71867625	        -22.02416403	        -11.16353345	          9.18757486	         44.78451943	        -23.10594689	        -13.72795680	         95.28496869	         46.10505572	          0.74816596	          5.94453828	        -55.20773625	        -16.25532938	        -12.27928041	         75.41281467	         60.06449365	        -22.99394932	          5.93568472	
